<?xml version="1.0" standalone="no"?>
<!DOCTYPE svg PUBLIC "-//W3C//DTD SVG 20010904//EN"
 "http://www.w3.org/TR/2001/REC-SVG-20010904/DTD/svg10.dtd">
<svg version="1.0" xmlns="http://www.w3.org/2000/svg"
 width="700.000000pt" height="700.000000pt" viewBox="0 0 700.000000 700.000000"
 preserveAspectRatio="xMidYMid meet">
<metadata>
Created by potrace 1.14, written by Peter Selinger 2001-2017
</metadata>
<g transform="translate(0.000000,700.000000) scale(0.100000,-0.100000)"
fill="#000000" stroke="none">
<path d="M3215 6980 c-105 -11 -187 -21 -215 -25 -61 -9 -117 -18 -135 -22
-11 -2 -32 -6 -47 -8 -15 -2 -93 -20 -174 -41 -340 -84 -671 -222 -969 -404
-76 -46 -242 -159 -290 -197 -16 -13 -35 -27 -40 -31 -115 -83 -390 -346 -496
-472 -30 -35 -60 -71 -67 -78 -28 -30 -132 -172 -189 -257 -263 -395 -439
-820 -527 -1270 -30 -156 -37 -203 -53 -375 -15 -161 -8 -605 11 -707 2 -10 7
-43 10 -73 7 -62 12 -94 26 -165 6 -27 12 -59 14 -70 27 -143 126 -474 171
-570 7 -16 23 -54 34 -83 36 -90 150 -312 222 -432 233 -384 548 -731 901
-993 99 -73 151 -109 283 -192 277 -176 753 -365 1086 -430 72 -14 190 -35
229 -39 25 -4 54 -8 66 -10 65 -13 206 -20 409 -20 260 -1 377 6 550 34 97 16
118 20 165 30 25 5 57 12 71 14 72 12 407 112 474 141 17 8 71 30 120 50 178
72 360 169 550 293 91 59 130 87 220 155 152 115 412 361 521 492 27 33 54 65
59 71 10 10 85 110 151 199 103 140 264 426 352 625 68 155 173 480 199 619 6
37 11 41 54 41 l39 0 0 235 c0 129 -3 235 -7 235 -5 0 -8 109 -8 242 0 134 -4
277 -8 318 -5 41 -10 89 -11 105 -2 17 -6 48 -9 70 -4 22 -9 57 -12 78 -21
151 -119 528 -164 632 -5 11 -30 73 -56 138 -45 110 -145 317 -193 397 -12 19
-29 49 -38 65 -29 52 -148 229 -171 255 -13 14 -23 28 -23 32 0 4 -32 46 -72
95 -387 473 -837 812 -1390 1047 -268 114 -665 217 -935 242 -32 3 -69 8 -83
11 -41 8 -530 11 -605 3z"/>
</g>
</svg>
